# xmcd
#
# Track frame offsets: 
#        150
#        13242
#        29953
#        46105
#        68135
#        79123
#        96523
#        110810
#        126231
#        144873
#
# Disc length: 2188 seconds
#
# Revision: 0
# Processed by: cddbd v1.5.2PL0 Copyright (c) Steve Scherf et al.
# Submitted via: ExactAudioCopy v1.0b4
#
DISCID=8f088a0a
DTITLE=The Deluxe Blues Band - Blues Amongst Friends - Disc 2
DYEAR=2002
DGENRE=Blues
TTITLE0=Really Love My Baby
TTITLE1=Cool Operator
TTITLE2=A Fool Of Me
TTITLE3=I Know]
TTITLE4=The Lonely Side
TTITLE5=Riding Two Trains
TTITLE6=Drop Dead
TTITLE7=Gone Too Long
TTITLE8=Heatwave
TTITLE9=Just A Little Bit
EXTD=
EXTT0=
EXTT1=
EXTT2=
EXTT3=
EXTT4=
EXTT5=
EXTT6=
EXTT7=
EXTT8=
EXTT9=
PLAYORDER=
